<?xml version="1.0" standalone="no"?>
<!DOCTYPE svg PUBLIC "-//W3C//DTD SVG 20010904//EN"
 "http://www.w3.org/TR/2001/REC-SVG-20010904/DTD/svg10.dtd">
<svg version="1.0" xmlns="http://www.w3.org/2000/svg"
 width="1095.000000pt" height="445.000000pt" viewBox="0 0 1095.000000 445.000000"
 preserveAspectRatio="xMidYMid meet">
<g transform="translate(0.000000,445.000000) scale(0.100000,-0.100000)"
fill="#000000" stroke="none">
<path d="M4858 4443 c-9 -2 -21 -17 -28 -32 -9 -23 -8 -36 7 -72 48 -121 98
-181 138 -165 15 5 17 15 12 54 -3 27 -15 65 -27 85 l-22 37 57 0 c212 0 909
-178 1205 -308 414 -181 659 -395 746 -652 26 -78 25 -223 -3 -308 -86 -259
-385 -514 -759 -646 -294 -104 -643 -158 -1029 -160 -310 -1 -397 23 -424 116
-7 24 -17 57 -22 74 -5 18 -7 50 -3 73 4 23 3 41 0 41 -9 0 -36 -26 -36 -35 0
-3 -11 -22 -24 -43 -31 -46 -42 -123 -27 -180 23 -85 95 -136 231 -163 84 -17
500 -17 670 0 366 37 655 113 915 241 184 90 281 156 385 260 136 134 232 293
266 439 19 79 14 260 -9 331 -83 254 -297 469 -636 639 -304 153 -797 297
-1253 366 -90 14 -290 19 -330 8z"/>
<path d="M5307 3968 c-35 -27 -55 -252 -37 -433 39 -417 153 -986 194 -972 6
2 19 25 29 52 16 42 16 61 7 174 -6 69 -24 209 -40 311 -58 362 -72 512 -67
682 3 126 1 161 -10 178 -16 23 -51 26 -76 8z"/>
<path d="M8042 3885 c-27 -34 -35 -89 -28 -183 3 -42 11 -194 17 -336 9 -232
26 -467 44 -596 5 -36 4 -41 -5 -27 -17 26 -36 6 -50 -53 -13 -54 -7 -96 20
-150 28 -55 53 -78 116 -107 53 -25 69 -28 164 -27 116 2 199 19 294 63 76 35
121 80 155 151 24 50 26 66 25 175 -1 142 -19 224 -74 340 -71 149 -165 225
-278 225 -119 0 -185 -64 -248 -240 -21 -60 -23 -62 -24 -30 -1 19 -13 211
-28 425 l-27 390 -26 3 c-19 2 -33 -4 -47 -23z m474 -677 c106 -97 183 -371
144 -507 -20 -72 -100 -127 -225 -156 -120 -29 -227 -15 -282 37 -30 29 -29
35 6 30 23 -3 36 2 54 22 21 22 27 46 42 159 41 323 95 457 182 457 25 0 44
-10 79 -42z"/>
<path d="M1170 3893 c-25 -10 -30 -25 -30 -93 0 -218 -65 -466 -191 -729 -74
-155 -153 -274 -225 -340 -63 -58 -96 -71 -132 -50 -50 28 -64 61 -70 161 -5
102 11 340 34 513 8 61 18 167 21 237 l6 127 -27 7 c-55 13 -60 -5 -106 -326
-35 -247 -54 -499 -45 -595 12 -126 67 -211 152 -234 96 -27 173 -1 263 89
129 128 241 334 340 623 26 76 49 140 52 142 2 3 28 -87 56 -198 29 -111 77
-292 107 -402 76 -277 165 -646 165 -683 0 -4 -75 -44 -167 -87 -739 -349
-1123 -614 -1292 -891 -59 -97 -81 -174 -81 -282 0 -118 20 -196 81 -314 104
-198 393 -417 679 -512 135 -45 206 -56 361 -56 100 0 141 4 195 21 178 54
363 199 449 353 19 34 47 107 62 161 27 97 28 107 27 335 0 237 -4 274 -55
610 -20 133 -96 571 -104 600 -2 9 23 36 65 70 65 52 88 90 55 90 -8 0 -42 -9
-76 -21 -33 -12 -62 -19 -64 -17 -2 2 -11 39 -20 83 -25 125 -100 418 -172
675 -120 430 -162 595 -198 772 -14 70 -28 134 -31 142 -8 21 -52 31 -84 19z
m402 -1914 c15 -69 88 -509 114 -689 23 -156 28 -220 28 -405 1 -244 -10 -316
-65 -427 -37 -73 -76 -117 -168 -190 -194 -153 -366 -180 -639 -101 -239 69
-511 254 -624 424 -64 96 -100 236 -87 338 33 258 415 578 1114 934 94 47 199
102 235 121 36 20 69 34 75 33 5 -2 13 -19 17 -38z"/>
<path d="M8901 3843 c-5 -10 -12 -49 -16 -88 -3 -38 -20 -164 -38 -280 -28
-189 -31 -234 -31 -455 l-1 -245 29 -75 c48 -125 108 -199 195 -242 67 -33
210 -38 274 -10 l46 20 53 -20 c46 -17 71 -19 188 -16 134 3 136 4 210 42 86
43 106 59 128 101 l15 30 34 -107 c37 -117 51 -134 107 -124 43 8 59 44 45
104 -5 24 -15 54 -21 65 -31 58 -64 311 -56 427 6 81 25 115 76 138 31 14 93
17 392 22 345 6 420 13 420 40 0 19 -113 59 -196 70 -113 15 -612 9 -665 -8
-87 -29 -133 -83 -156 -182 -7 -30 -19 -80 -28 -110 -22 -79 -19 -149 9 -224
l25 -65 -93 -46 c-118 -57 -215 -74 -323 -56 l-71 13 34 58 c111 185 179 527
123 617 -43 69 -168 85 -274 34 -151 -72 -227 -229 -212 -439 7 -90 40 -180
94 -251 l26 -34 -65 5 c-77 5 -117 30 -167 105 -59 89 -66 132 -65 388 1 182
6 263 24 385 27 191 37 378 21 408 -15 28 -76 31 -90 5z m610 -696 c22 -83
-73 -391 -151 -487 l-20 -25 -21 25 c-62 76 -87 231 -56 341 29 100 122 181
201 176 34 -2 41 -6 47 -30z"/>
<path d="M3203 3200 c-158 -22 -335 -86 -367 -132 -18 -26 -21 -128 -6 -248 5
-41 15 -129 21 -195 15 -160 31 -218 64 -233 38 -18 62 -15 85 10 30 33 27
140 -11 318 -33 157 -49 261 -42 273 14 25 158 68 289 87 48 7 124 9 185 6
225 -13 204 -15 207 17 4 31 -8 44 -73 79 -34 19 -59 22 -165 24 -69 1 -153
-1 -187 -6z"/>
<path d="M2038 3168 c-39 -87 -41 -99 -42 -311 l-1 -212 28 -55 c16 -30 36
-64 45 -74 51 -57 196 -75 279 -35 77 37 163 168 188 285 17 81 20 282 4 338
-23 82 -102 123 -149 76 -27 -27 -25 -49 7 -82 33 -34 41 -106 25 -225 -16
-117 -44 -183 -105 -248 -62 -65 -96 -72 -146 -29 -54 45 -65 107 -58 334 7
221 1 270 -37 270 -17 0 -28 -9 -38 -32z"/>
<path d="M7660 3100 c-21 -21 -25 -80 -11 -145 9 -40 -5 -129 -29 -183 -29
-66 -74 -117 -142 -161 -104 -68 -181 -63 -207 11 -17 48 -14 233 5 314 25
106 4 152 -57 124 -39 -18 -69 -161 -69 -326 0 -121 2 -134 27 -183 22 -46 34
-57 81 -79 46 -21 64 -24 119 -19 111 9 232 82 299 181 18 28 34 44 34 36 1
-57 30 -280 40 -302 21 -45 88 -52 125 -12 26 28 26 62 -2 119 -8 17 -19 73
-24 125 -11 115 -14 132 -50 292 -16 69 -29 140 -29 157 0 38 -31 71 -65 71
-14 0 -34 -9 -45 -20z"/>
<path d="M3672 2988 c-18 -23 -21 -122 -7 -243 8 -66 19 -160 24 -210 7 -73
13 -92 31 -107 28 -23 62 -23 89 0 21 17 21 18 6 192 -8 96 -19 195 -24 220
-20 91 -32 135 -43 147 -13 17 -62 17 -76 1z"/>
</g>
</svg>
